HIERARCHY
ROOT Hips
{
	OFFSET 0.000000 0.000000 0.000000 
	CHANNELS 6 Xposition Yposition Zposition Yrotation Zrotation Xrotation 
	JOINT Lumbar
	{
		OFFSET 0.000000 0.000000 0.000000 
		CHANNELS 3 Zrotation Xrotation Yrotation
		JOINT Neck
		{
			OFFSET 0.000000 0.445665 0.000000 
			CHANNELS 3 Zrotation Xrotation Yrotation
			End Site
			{
				OFFSET 0.000000 0.227535 0.000000 
			}
		}
		JOINT RightShoulder
		{
			OFFSET 0.019635 0.377685 0.194865 
			CHANNELS 3 Zrotation Xrotation Yrotation
			JOINT RightElbow
			{
				OFFSET 0.000000 -0.243375 0.000000 
				CHANNELS 2 Zrotation Yrotation
				JOINT RightWrist
				{
					OFFSET 0.000000 -0.264825 0.000000 
					CHANNELS 2 Zrotation Xrotation
					End Site
					{
						OFFSET 0.006600 -0.176220 0.000990 
					}
				}
			}
		}
		JOINT LeftShoulder
		{
			OFFSET 0.019635 0.377685 -0.194865 
			CHANNELS 3 Zrotation Xrotation Yrotation
			JOINT LeftElbow
			{
				OFFSET 0.000000 -0.243375 0.000000 
				CHANNELS 2 Zrotation Yrotation
				JOINT LeftWrist
				{
					OFFSET 0.000000 -0.264825 0.000000 
					CHANNELS 2 Zrotation Xrotation
					End Site
					{
						OFFSET 0.006600 -0.176220 -0.000990 
					}
				}
			}
		}
	}
	JOINT RightHip
	{
		OFFSET 0.052140 -0.069960 0.075570 
		CHANNELS 3 Zrotation Xrotation Yrotation
		JOINT RightKnee
		{
			OFFSET 0.000000 -0.402270 0.000000 
			CHANNELS 1 Zrotation
			JOINT RightAnkle
			{
				OFFSET 0.000000 -0.404085 0.000000 
				CHANNELS 3 Zrotation Xrotation Yrotation
				End Site
				{
					OFFSET 0.204105 -0.089430 0.008415 
				}
			}
		}
	}
	JOINT LeftHip
	{
		OFFSET 0.052140 -0.069960 -0.075570 
		CHANNELS 3 Zrotation Xrotation Yrotation
		JOINT LeftKnee
		{
			OFFSET 0.000000 -0.402270 0.000000 
			CHANNELS 1 Zrotation
			JOINT LeftAnkle
			{
				OFFSET 0.000000 -0.404085 0.000000 
				CHANNELS 3 Zrotation Xrotation Yrotation
				End Site
				{
					OFFSET 0.204105 -0.089430 -0.008415 
				}
			}
		}
	}
}
MOTION
Frames: 10
Frame Time: 0.02
0.38318 -0.14935 -0.4846 206.90134 -26.79974 4.36121 43.31624 10.60375 24.74887 3.09712 1.26303 -0.83079 169.88187 -171.02778 -90.01158 137.62436 115.51325 -60.68827 -7.7345 100.17429 42.2259 -56.27633 63.02249 -125.24921 -41.00331 9.07923 56.00927 -8.99027 -16.30222 -70.27296 -5.72246 -4.5937 -3.02147 68.22422 23.79134 -5.84439 -37.20685 -18.37514 4.48022 3.67136
0.38199 -0.14953 -0.48377 206.98107 -26.74902 4.41354 43.42456 10.57302 24.89029 3.39962 0.62839 -0.83079 169.88187 -171.02778 -90.01158 137.62436 115.51166 -60.54322 -7.72001 99.96137 42.28582 -56.07707 63.21666 -125.1645 -41.0726 9.08561 55.91587 -8.8077 -15.91239 -70.29012 -5.7605 -4.6366 -3.04539 68.18817 23.6782 -5.98977 -37.36581 -18.38486 4.46881 3.66493
0.38072 -0.14968 -0.48301 207.08073 -26.67132 4.4581 43.53632 10.50982 25.0144 3.66332 0.09298 -0.83079 169.88187 -171.02778 -90.01158 137.62436 115.4861 -60.40729 -7.6841 99.71378 42.31611 -55.89897 63.4534 -125.07948 -41.12668 9.10006 55.79205 -8.56981 -15.47389 -70.29327 -5.80817 -4.69042 -3.0749 68.12306 23.54518 -6.17899 -37.5051 -18.38986 4.45847 3.65887
0.37949 -0.14985 -0.48222 207.17099 -26.60509 4.50486 43.64457 10.46031 25.14582 3.94118 -0.48274 -0.83079 169.88187 -171.02778 -90.01158 137.62436 115.47252 -60.26578 -7.65891 99.48228 42.35941 -55.71155 63.67577 -124.99862 -41.18574 9.10981 55.67683 -8.37159 -15.08254 -70.30134 -5.84913 -4.73671 -3.10043 68.07038 23.42384 -6.34381 -37.65098 -18.39688 4.44764 3.65263
0.37823 -0.15002 -0.48139 207.26293 -26.54141 4.55699 43.76174 10.41476 25.27975 4.23175 -1.07907 -0.83079 169.88187 -171.02778 -90.01158 137.62436 115.45347 -60.13069 -7.62881 99.24613 42.40389 -55.52237 63.87837 -124.9023 -41.25201 9.12422 55.5816 -8.11244 -14.58714 -70.31462 -5.89976 -4.79371 -3.13198 68.01996 23.29081 -6.52982 -37.80692 -18.40462 4.43684 3.64647
0.37703 -0.15017 -0.48067 207.35608 -26.46636 4.59602 43.86076 10.35348 25.4042 4.48697 -1.60809 -0.83079 169.88187 -171.02779 -90.01158 137.62436 115.44063 -59.98482 -7.60432 99.0136 42.43792 -55.34219 64.12991 -124.83734 -41.30007 9.13082 55.43887 -7.9654 -14.29438 -70.31406 -5.93279 -4.83126 -3.15248 67.95845 23.17757 -6.68158 -37.93698 -18.40965 4.42625 3.64023
0.37604 -0.15025 -0.48023 207.44715 -26.36566 4.60295 43.90994 10.25612 25.50736 4.65888 -1.98367 -0.83079 169.88187 -171.02779 -90.01158 137.62436 115.44897 -59.80023 -7.59854 98.7884 42.46536 -55.18004 64.52961 -124.86133 -41.30071 9.11249 55.16512 -8.16022 -14.59728 -70.2787 -5.9125 -4.80991 -3.13959 67.87175 23.1243 -6.72334 -38.00277 -18.40862 4.41575 3.63361
0.37513 -0.1503 -0.4799 207.53898 -26.25456 4.59663 43.94029 10.1441 25.60132 4.79573 -2.29361 -0.83079 169.88187 -171.02779 -90.01158 137.62436 115.46499 -59.6058 -7.59973 98.57058 42.48072 -55.02642 64.97309 -124.91623 -41.28369 9.08621 54.84602 -8.46658 -15.10168 -70.23002 -5.87458 -4.76907 -3.11567 67.77532 23.09162 -6.72941 -38.04267 -18.40489 4.40546 3.62692
0.3742 -0.15037 -0.47953 207.63055 -26.14904 4.59506 43.97864 10.03936 25.69918 4.94618 -2.6281 -0.83079 169.88187 -171.02779 -90.01158 137.62436 115.47861 -59.41988 -7.59895 98.3568 42.49218 -54.87016 65.38098 -124.95538 -41.27561 9.06441 54.55283 -8.7096 -15.49768 -70.18753 -5.84627 -4.73882 -3.09779 67.68462 23.04933 -6.75479 -38.09296 -18.40227 4.39523 3.62033
0.37322 -0.15044 -0.47913 207.72173 -26.03952 4.59867 44.02011 9.93132 25.79809 5.10624 -2.98076 -0.83079 169.88187 -171.02779 -90.01158 137.62436 115.48615 -59.21641 -7.59182 98.10994 42.54253 -54.70996 65.85562 -125.00198 -41.26369 9.03925 54.23676 -9.00353 -15.96177 -70.14387 -5.81158 -4.70168 -3.07578 67.58747 23.00746 -6.76955 -38.1487 -18.40024 4.38442 3.61347
